<?xml version="1.0" ?><svg width="60px" height="60px" viewBox="-10 0 60 60" version="1.1" xmlns="http://www.w3.org/2000/svg" xmlns:xlink="http://www.w3.org/1999/xlink"><title/><desc/><g fill="none" fill-rule="evenodd" id="Page-1" stroke="none" stroke-width="1"><g fill="#000000" id="006---Ipod"><path d="M36,0 L4,0 C1.790861,-1.3527075e-16 0,1.790861 0,4 L0,56 C0,58.209139 1.790861,60 4,60 L36,60 C38.209139,60 40,58.209139 40,56 L40,4 C40,1.790861 38.209139,1.3527075e-16 36,0 Z M38,56 C38,57.1045695 37.1045695,58 36,58 L4,58 C2.8954305,58 2,57.1045695 2,56 L2,4 C2,2.8954305 2.8954305,2 4,2 L36,2 C37.1045695,2 38,2.8954305 38,4 L38,56 Z" fill-rule="nonzero" id="Shape"/><path d="M33,5 L7,5 C5.8954305,5 5,5.8954305 5,7 L5,23 C5,24.1045695 5.8954305,25 7,25 L33,25 C34.1045695,25 35,24.1045695 35,23 L35,7 C35,5.8954305 34.1045695,5 33,5 Z M33,23 L7,23 L7,7 L33,7 L33,23 Z" fill-rule="nonzero" id="Shape"/><path d="M20,28 C12.2680135,28 6,34.2680135 6,42 C6,49.7319865 12.2680135,56 20,56 C27.7319865,56 34,49.7319865 34,42 C33.9917327,34.2714405 27.7285595,28.0082673 20,28 Z M20,54 C13.372583,54 8,48.627417 8,42 C8,35.372583 13.372583,30 20,30 C26.627417,30 32,35.372583 32,42 C31.9928352,48.624447 26.624447,53.9928352 20,54 Z" fill-rule="nonzero" id="Shape"/><path d="M20,36 C16.6862915,36 14,38.6862915 14,42 C14,45.3137085 16.6862915,48 20,48 C23.3137085,48 26,45.3137085 26,42 C25.9966926,38.6876624 23.3123376,36.0033074 20,36 Z M20,46 C17.790861,46 16,44.209139 16,42 C16,39.790861 17.790861,38 20,38 C22.209139,38 24,39.790861 24,42 C24,44.209139 22.209139,46 20,46 Z" fill-rule="nonzero" id="Shape"/><path d="M20,34 C20.5522847,34 21,33.5522847 21,33 C21,32.4477153 20.5522847,32 20,32 C16.1991944,31.9898303 12.7242883,34.1447687 11.044,37.554 C10.8712962,37.8751391 10.8870785,38.2648249 11.0851863,38.5709461 C11.2832942,38.8770673 11.6323204,39.0510926 11.9960248,39.0250924 C12.3597292,38.9990923 12.6804515,38.7771886 12.833,38.446 C14.1777068,35.7176443 16.9582721,33.9927394 20,34 Z" id="Path"/><path d="M12,42 C12,41.4477153 11.5522847,41 11,41 C10.4477153,41 10,41.4477153 10,42 C9.99987693,42.7476348 10.0833964,43.4929367 10.249,44.222 C10.3184222,44.5803921 10.5776224,44.8724772 10.9252202,44.9840125 C11.272818,45.0955477 11.6535735,45.0088082 11.9185623,44.75772 C12.1835512,44.5066319 12.2906617,44.1310979 12.198,43.778 C12.0658067,43.1945876 11.9993924,42.5982013 12,42 Z" id="Path"/><path d="M10,12 C10.5522847,12 11,11.5522847 11,11 L11,10 C11,9.44771525 10.5522847,9 10,9 C9.44771525,9 9,9.44771525 9,10 L9,11 C9,11.5522847 9.44771525,12 10,12 Z" id="Path"/><path d="M10,21 C10.5522847,21 11,20.5522847 11,20 L11,15 C11,14.4477153 10.5522847,14 10,14 C9.44771525,14 9,14.4477153 9,15 L9,20 C9,20.5522847 9.44771525,21 10,21 Z" id="Path"/></g></g></svg>